<svg width="46" height="46" viewBox="0 0 46 46" fill="none" xmlns="http://www.w3.org/2000/svg">
<path d="M20.4868 0.648309C17.8057 0.952763 14.8596 1.83568 12.7698 2.96216C12.4946 3.10424 12.0766 3.33765 11.8421 3.45943C11.0776 3.86537 9.51786 4.95125 8.65136 5.67179C5.02224 8.68589 2.4635 12.6438 1.27078 17.0787C0.526606 19.8492 0.302335 22.6502 0.60816 25.2989C0.954762 28.2318 1.49505 30.1194 2.76932 32.8494C3.06495 33.4786 4.0334 35.1125 4.51253 35.8026C6.67369 38.8674 10.0276 41.7293 13.1368 43.15C13.4528 43.2921 13.9523 43.5255 14.248 43.6575C14.8392 43.9315 16.3174 44.4389 17.1737 44.6622C23.4125 46.3265 30.1814 45.2305 35.5538 41.6785C43.6887 36.2998 47.4096 26.2427 44.7489 16.8351C42.9649 10.5025 38.2246 5.06289 32.2101 2.43444C28.4688 0.800536 24.4727 0.191629 20.4868 0.648309ZM34.9727 12.7757L35.2683 13.0802L35.2581 14.5212C35.2479 15.3128 35.1766 16.3987 35.0848 16.9264C34.9931 17.4541 34.83 18.5299 34.7077 19.3113C34.5955 20.0927 34.463 20.9554 34.4018 21.2395C34.3509 21.5135 34.2795 21.9499 34.2489 22.2036C34.2183 22.4573 34.1266 23.0662 34.045 23.5737C33.9635 24.0709 33.831 24.9437 33.7392 25.5019C33.5761 26.5167 33.413 27.5011 33.1276 29.1756C33.046 29.6729 32.8829 30.6877 32.7606 31.4387C32.4955 33.164 32.2509 33.9352 31.7921 34.463C31.364 34.9602 30.895 35.1328 30.1305 35.0617C29.1824 34.9704 28.9378 34.8283 25.2271 32.1999C24.9722 32.0273 23.8407 31.2256 22.6989 30.434C20.4358 28.8407 20.0281 28.4551 20.0281 27.8766C20.0281 27.4605 20.4358 26.7806 20.9659 26.3138C21.1494 26.1514 22.179 25.1974 23.2392 24.1826C24.3096 23.1779 25.9305 21.6556 26.8378 20.793C28.5096 19.22 29.0397 18.5502 28.9785 18.1239C28.948 17.921 28.897 17.8905 28.5708 17.9108C28.0916 17.9413 27.3679 18.3066 26.1955 19.1083C25.696 19.4534 24.1975 20.4581 22.8824 21.341C21.5674 22.2239 20.1402 23.188 19.7222 23.4722C15.9708 26.0397 15.8586 26.1006 14.2683 26.1006C13.045 26.0905 13.198 26.1311 10.1499 25.0553C9.35476 24.7712 8.53922 24.4464 8.34553 24.3247C7.90719 24.0608 7.80524 23.6954 8.07029 23.3403C8.29456 23.0358 9.93582 22.163 11.1591 21.7165C11.414 21.615 16.6436 19.291 18.0402 18.6517C18.4378 18.469 19.0086 18.2153 19.3145 18.0732C19.6203 17.9413 20.0281 17.7586 20.2014 17.6774C25.3086 15.3737 29.0397 13.8413 31.3436 13.0802C33.1174 12.4916 33.1785 12.4814 33.9533 12.4713C34.6261 12.4611 34.6873 12.4814 34.9727 12.7757Z" fill="white"/>
</svg>
