<svg width="45" height="45" viewBox="0 0 45 45" fill="none" xmlns="http://www.w3.org/2000/svg">
<path d="M19.3322 0.298891C12.8835 1.15619 7.29599 4.61528 3.69114 9.9684C2.87003 11.1945 1.65841 13.6169 1.22783 14.9028C-0.0739243 18.7806 -0.334275 22.5388 0.416736 26.4165C0.857328 28.6595 1.29792 29.9354 2.40942 32.1485C5.77394 38.8374 12.3027 43.3133 19.8729 44.1107C23.678 44.5195 27.4431 43.9512 30.9478 42.436C34.1721 41.0404 36.9258 38.9869 39.2389 36.2356C41.2917 33.8032 42.9339 30.5535 43.6949 27.4134C44.5361 23.9742 44.5261 20.2759 43.6549 16.7969C43.2744 15.2517 42.8939 14.2349 42.0627 12.5104C39.7296 7.67563 35.6842 3.88757 30.5473 1.74433C27.1927 0.348734 23.0271 -0.189569 19.3322 0.298891ZM28.094 7.85507L29.596 7.92485L29.626 10.2874L29.646 12.6599L28.0239 12.6699C26.7622 12.6699 26.2815 12.7098 25.921 12.8393C25.2001 13.0985 24.5993 13.577 24.3589 14.0755C24.1487 14.4941 24.1386 14.6636 24.1386 16.9265V19.3389H26.7922H29.4558L29.4057 19.6578C29.3757 19.8373 29.2555 20.5949 29.1454 21.3326C29.0352 22.0702 28.895 22.8976 28.845 23.1768C28.7949 23.4459 28.7248 23.9244 28.6848 24.2235C28.6447 24.5225 28.5746 24.8315 28.5145 24.8913C28.4444 24.991 27.8737 25.0209 26.2815 25.0209H24.1386V31.7896C24.1386 35.5178 24.1086 38.628 24.0786 38.7177C24.0285 38.8573 23.658 38.8772 21.0245 38.8772H18.0304V32.0089C18.0304 27.6427 17.9904 25.1107 17.9303 25.0708C17.8802 25.0409 16.7387 25.011 15.3869 25.011C13.274 25.011 12.9336 24.991 12.8835 24.8614C12.8034 24.6521 12.8034 19.6977 12.8835 19.4984C12.9336 19.3588 13.254 19.3389 15.3668 19.3389C16.6886 19.3389 17.8302 19.299 17.9003 19.2591C17.9804 19.2093 18.0304 18.332 18.0505 16.1988C18.0905 13.5172 18.1205 13.1384 18.3008 12.5602C18.7514 11.1646 19.3322 10.1877 20.2033 9.35035C20.8642 8.7323 21.425 8.3834 22.2661 8.07437C23.2975 7.69557 23.8282 7.67563 28.094 7.85507Z" fill="white"/>
</svg>
