<svg width="45" height="45" viewBox="0 0 45 45" fill="none" xmlns="http://www.w3.org/2000/svg">
<g clip-path="url(#clip0_165_48)">
<path d="M19.7933 0.299084C17.4702 0.618078 15.9181 1.03676 13.8954 1.89405C8.10761 4.34632 3.59154 9.21098 1.58884 15.1522C0.867873 17.2955 0.417267 20.0269 0.417267 22.2299C0.417267 23.8448 0.747711 26.2174 1.21834 27.9619C2.38992 32.3181 4.9033 36.2059 8.4681 39.1665C9.31924 39.8743 10.8513 40.9409 11.6023 41.3397C11.8326 41.4593 12.2432 41.6886 12.5035 41.8281C13.1544 42.1671 14.6264 42.7851 15.5376 43.0941C19.6832 44.4798 24.009 44.6193 28.3048 43.5028C35.7448 41.5789 41.833 35.6177 43.9258 28.2011C44.9071 24.742 45.0273 21.0536 44.2863 17.5846C43.0947 12.0022 39.7502 7.06774 34.9938 3.8778C30.5778 0.907169 24.9903 -0.408684 19.7933 0.299084ZM30.3575 8.17425C31.2688 8.34372 31.6993 8.48328 32.4203 8.84215C34.0425 9.63963 35.2441 10.8259 36.0051 12.4109C36.7862 14.0059 36.7662 13.7766 36.7662 22.2499C36.7662 29.198 36.7461 29.806 36.5759 30.454C35.9451 32.8764 34.0725 34.9698 31.8195 35.7872C30.4477 36.2756 30.3475 36.2856 22.5771 36.2856C15.6377 36.2856 15.2472 36.2756 14.4562 36.0862C12.113 35.528 10.2505 34.0626 9.19908 31.9493C8.43806 30.4141 8.47811 30.9724 8.47811 22.1801V14.3049L8.70842 13.5972C9.5896 10.806 11.9027 8.74246 14.7766 8.17425C15.3273 8.0646 29.7868 8.0646 30.3575 8.17425Z" fill="white"/>
<path d="M14.9468 10.7261C13.625 11.0152 12.3533 11.9622 11.6624 13.1684C10.9214 14.4544 10.9314 14.3248 10.9314 22.18C10.9314 29.9455 10.9314 29.8957 11.6023 31.1019C12.3433 32.4277 13.7752 33.4445 15.2472 33.6838C16.1284 33.8333 29.0458 33.8333 29.947 33.6838C30.3075 33.6339 30.9283 33.4345 31.3389 33.2451C32.6907 32.6171 33.8422 31.1816 34.1526 29.7262C34.3028 28.9886 34.3028 15.3715 34.1526 14.6338C33.7521 12.7697 32.0798 11.1149 30.1873 10.7162C29.206 10.5068 15.9081 10.5168 14.9468 10.7261ZM30.678 13.0787C31.1586 13.2183 31.7294 13.8264 31.8195 14.2949C32.1299 15.9696 30.0271 16.9665 28.9356 15.6606C28.2147 14.8133 28.6552 13.3678 29.7267 13.0787C30.2474 12.9392 30.2374 12.9392 30.678 13.0787ZM24.1792 14.6438C27.7741 15.4313 30.3675 18.5814 30.3675 22.19C30.3675 25.4098 28.3448 28.2609 25.2407 29.4371C24.6398 29.6664 23.248 29.9057 22.527 29.9057C21.4355 29.9057 20.0136 29.5269 18.9422 28.9387C16.7893 27.7624 15.3874 25.7388 14.9869 23.2168C14.8367 22.2498 14.8367 22.0803 14.9869 21.1732C15.2873 19.2692 16.0683 17.7839 17.4702 16.488C19.2826 14.8232 21.796 14.1254 24.1792 14.6438Z" fill="white"/>
<path d="M21.5056 17.3055C18.7519 17.9734 17.0096 20.7247 17.7005 23.3663C17.9508 24.3433 18.3414 25.0211 19.0523 25.7289C20.4041 27.0846 22.2767 27.5631 24.1291 27.0248C25.1505 26.7258 26.3922 25.709 27.003 24.6822C28.6953 21.8113 26.963 17.9933 23.6585 17.2955C22.7873 17.1161 22.2867 17.1161 21.5056 17.3055Z" fill="white"/>
</g>
<defs>
<clipPath id="clip0_165_48">
<rect width="44.4598" height="44.4598" fill="white" transform="translate(0.317139)"/>
</clipPath>
</defs>
</svg>
