<?xml version="1.0" encoding="utf-8"?>
<!-- Generator: Adobe Illustrator 16.0.0, SVG Export Plug-In . SVG Version: 6.00 Build 0)  -->
<!DOCTYPE svg PUBLIC "-//W3C//DTD SVG 1.1//EN" "http://www.w3.org/Graphics/SVG/1.1/DTD/svg11.dtd">
<svg version="1.1" id="Judge_1_" xmlns="http://www.w3.org/2000/svg" xmlns:xlink="http://www.w3.org/1999/xlink" x="0px" y="0px"
	 width="512px" height="512px" viewBox="0 0 512 512" enable-background="new 0 0 512 512" xml:space="preserve">
<circle id="Background_7_" fill="#009244" cx="256" cy="256" r="256"/>
<path id="Shadow" opacity="0.1" d="M510.237,286.029L322.209,98h-66.028v413.998C387.324,511.906,495.376,413.203,510.237,286.029z"
	/>
<g id="Judge">
	<path fill="#FFD0AE" d="M349.912,360.184c-74.442,0-57.834-36.507-62.884-73.06h-61.694c-5.05,36.553,11.558,73.06-62.884,73.06
		c-47.574,0-63.807,20.847-63.807,66.709v30.9C142.084,491.754,196.767,512,256.181,512c59.415,0,114.097-20.245,157.538-54.207
		v-30.9C413.719,381.03,397.485,360.184,349.912,360.184z"/>
	<path opacity="0.1" d="M288.299,308.324c-0.162-6.264-0.377-12.73-1.271-19.2h-61.694c-0.89,6.439-1.107,12.877-1.269,19.114
		c8.926,5.721,19.539,9.159,32.184,9.159C268.831,317.397,279.4,313.993,288.299,308.324z"/>
	<ellipse fill="#FFD0AE" cx="181.369" cy="223.44" rx="13.799" ry="16.269"/>
	<ellipse fill="#FFD0AE" cx="331.132" cy="223.44" rx="13.799" ry="16.269"/>
	<path fill="#FFD0AE" d="M269.973,106.669h-27.445c-36.089,0-65.345,42.325-65.345,78.415c0,0,2.113,126.77,79.068,126.77
		s79.068-126.77,79.068-126.77C335.318,148.994,306.063,106.669,269.973,106.669z"/>
	<path fill="#CCBF9A" d="M175.018,209.453c-11.648-17.49-25.132-125.358,40.549-122.576
		c57.978-49.658,162.367,16.564,122.894,122.576l-7.457,4.695c7.178-20.148,1.364-68.778-7.394-64.235
		C277.182,174,256.181,129,215.567,131.287c-25.903,10.825-30.094,42.405-33.206,58.626c-3.112,16.222,0.114,24.235,0.114,24.235
		L175.018,209.453z"/>
	<g>
		<path opacity="0.1" d="M323.61,149.913C277.182,174,256.181,129,215.567,131.287c-25.903,10.825-30.094,42.405-33.206,58.626
			c-1.315,6.859-1.493,12.234-1.266,16.172c0.151-2.933,0.525-6.313,1.266-10.172c3.112-16.221,7.303-47.801,33.206-58.626
			C256.181,135,277.182,180,323.61,155.913c5.712-2.963,10.17,16.695,10.59,36.316C334.682,170.87,329.907,146.646,323.61,149.913z"
			/>
	</g>
	<path fill="#E4E5E6" d="M349.72,360.184c-9.713,0-17.862-0.627-24.725-1.788l-69.006,7.519l-69.006-7.519
		c-6.863,1.161-15.012,1.788-24.724,1.788c-47.574,0-63.807,20.847-63.807,66.709v30.9C141.892,491.754,196.574,512,255.989,512
		s114.097-20.245,157.538-54.207v-30.9C413.526,381.03,397.293,360.184,349.72,360.184z"/>
	<path fill="#E4E5E6" d="M349.72,360.184c-9.713,0-17.862-0.627-24.725-1.788l-69.006,7.519l-69.006-7.519
		c-6.863,1.161-15.012,1.788-24.724,1.788c-47.574,0-63.807,20.847-63.807,66.709v30.9C141.892,491.754,196.574,512,255.989,512
		s114.097-20.245,157.538-54.207v-30.9C413.526,381.03,397.293,360.184,349.72,360.184z"/>
	<path fill="#BC1E2D" d="M288.109,366.371h-63.232l21.896,28.781l-5.859,116.395c4.989,0.289,10.012,0.453,15.074,0.453
		c5.403,0,10.76-0.188,16.08-0.518l-5.854-116.33L288.109,366.371z"/>
	<path opacity="0.2" d="M246.773,395.152h19.44c0,0-4.935,1.769-9.721,1.769C251.708,396.921,246.773,395.152,246.773,395.152z"/>
	<polygon fill="#FFFFFF" points="221.662,332.181 216.92,332.181 186.936,358.057 219.117,403.615 256.181,365.914 	"/>
	<polygon fill="#FFFFFF" points="290.805,332.181 295.442,332.181 325.427,358.057 293.246,403.615 256.181,365.914 	"/>
	<path opacity="0.1" d="M219.117,407.608l37.064-38.708l37.065,38.708l35.168-48.722l-0.024-0.007
		c-1.094-0.15-2.168-0.31-3.202-0.484l-31.941,45.22l-37.065-37.701l-37.064,37.701l-31.941-45.22
		c-1.035,0.175-2.108,0.334-3.202,0.484l-0.025,0.007L219.117,407.608z"/>
	<path fill="#231F20" d="M359.72,358.885c-7.124,0-33.399-7.341-38.95-7.979c0,0-46.838,85.958-64.588,85.958
		c-17.75,0-64.621-85.469-64.621-85.469c-5.636,0.664-32.031,8.016-39.302,8.016c-44.667,0-70.52,38.45-73.513,81.107
		C124.763,484.78,187.291,512,256.181,512c68.709,0,131.091-27.072,177.073-71.127C430.381,398.019,404.511,358.885,359.72,358.885z
		"/>
	<rect x="143.333" y="436.864" opacity="0.2" width="225.333" height="5.469"/>
	<path opacity="0.2" d="M307.983,420.385c14.711-20.721,29.345-44.363,40.54-63.249c-1.974-0.419-4.057-0.886-6.163-1.371
		c-7.222,12.141-15.785,26.102-24.816,39.895c-9.673,14.774-19.883,29.34-29.485,41.205h7.672
		C299.774,431.706,303.879,426.164,307.983,420.385z"/>
	<path opacity="0.2" d="M209.271,417.179c-14.159-19.816-28.341-42.497-39.365-60.92c-2.107,0.484-4.191,0.95-6.171,1.368
		c6.895,11.561,15.102,24.928,23.831,38.313c9.372,14.366,19.331,28.731,28.937,40.925h7.679
		C219.316,430.881,214.292,424.21,209.271,417.179z"/>
</g>
</svg>
